# xmcd
#
# Track frame offsets:
#	150
#	12205
#	27165
#	43707
#	59307
#	84305
#	100685
#	114282
#	139400
#	153790
#
# Disc length: 2266 seconds
#
# Revision: 0
# Processed by: cddbd v1.5.2PL0 Copyright (c) Steve Scherf et al.
# Submitted via: EasyCDDAExtractor 12.0.1.1
#
DISCID=6f08d80a
DTITLE=Rich Stochla - Feelin' So Lonesome and Feelin' So Blue
DYEAR=1994
DGENRE=Country
TTITLE0=Oh Sweet Rebecca
TTITLE1=My Very Special Friend
TTITLE2=For All The Things
TTITLE3=That's What Friends Are For
TTITLE4=Feelin' So Lonesome and Feelin' So Blue
TTITLE5=Think Of Me
TTITLE6=Am I Crazy?
TTITLE7=You're Gonna Need Me When He Goes
TTITLE8=You're The Only True Love That I've Found
TTITLE9=Do You Want Me? (As Much As I Want You)
EXTD=
EXTT0=
EXTT1=
EXTT2=
EXTT3=
EXTT4=
EXTT5=
EXTT6=
EXTT7=
EXTT8=
EXTT9=
PLAYORDER=
